<svg id="Layer_1" data-name="Layer 1" xmlns="http://www.w3.org/2000/svg" viewBox="0 0 349.1 200"><title>illu_web</title><rect x="191.8" width="157.3" height="200" style="fill:#fff"/><rect x="20.7" width="171.1" height="200" style="fill:#f2f2f2"/><rect width="20.7" height="200" style="fill:#3992f1"/><g id="Layer_3" data-name="Layer 3"><path d="M328.9,56.4h-17a6.49,6.49,0,0,1-6.5-6.5h0a6.49,6.49,0,0,1,6.5-6.5h17a6.49,6.49,0,0,1,6.5,6.5h0A6.49,6.49,0,0,1,328.9,56.4Z" style="fill:#176757"/><path d="M328.9,82.1h-17a6.49,6.49,0,0,1-6.5-6.5h0a6.49,6.49,0,0,1,6.5-6.5h17a6.49,6.49,0,0,1,6.5,6.5h0A6.49,6.49,0,0,1,328.9,82.1Z" style="fill:#176757"/><path d="M328.9,107.9h-17a6.49,6.49,0,0,1-6.5-6.5h0a6.49,6.49,0,0,1,6.5-6.5h17a6.49,6.49,0,0,1,6.5,6.5h0A6.55,6.55,0,0,1,328.9,107.9Z" style="fill:#176757"/><path d="M328.9,133.6h-17a6.49,6.49,0,0,1-6.5-6.5h0a6.49,6.49,0,0,1,6.5-6.5h17a6.49,6.49,0,0,1,6.5,6.5h0A6.49,6.49,0,0,1,328.9,133.6Z" style="fill:#176757"/><path d="M165.8,113.1h-9.6a6.49,6.49,0,0,1-6.5-6.5h0a6.49,6.49,0,0,1,6.5-6.5h9.6a6.49,6.49,0,0,1,6.5,6.5h0A6.49,6.49,0,0,1,165.8,113.1Z" style="fill:#176757"/><path d="M165.8,138.9h-9.6a6.49,6.49,0,0,1-6.5-6.5h0a6.49,6.49,0,0,1,6.5-6.5h9.6a6.49,6.49,0,0,1,6.5,6.5h0A6.49,6.49,0,0,1,165.8,138.9Z" style="fill:#176757"/><path d="M165.8,164.6h-9.6a6.49,6.49,0,0,1-6.5-6.5h0a6.49,6.49,0,0,1,6.5-6.5h9.6a6.49,6.49,0,0,1,6.5,6.5h0A6.49,6.49,0,0,1,165.8,164.6Z" style="fill:#176757"/><path d="M165.8,190.3h-9.6a6.49,6.49,0,0,1-6.5-6.5h0a6.49,6.49,0,0,1,6.5-6.5h9.6a6.49,6.49,0,0,1,6.5,6.5h0A6.49,6.49,0,0,1,165.8,190.3Z" style="fill:#176757"/><path d="M328.9,159.3h-17a6.49,6.49,0,0,1-6.5-6.5h0a6.49,6.49,0,0,1,6.5-6.5h17a6.49,6.49,0,0,1,6.5,6.5h0A6.49,6.49,0,0,1,328.9,159.3Z" style="fill:#176757"/><path d="M328.9,185.1h-17a6.49,6.49,0,0,1-6.5-6.5h0a6.49,6.49,0,0,1,6.5-6.5h17a6.49,6.49,0,0,1,6.5,6.5h0A6.49,6.49,0,0,1,328.9,185.1Z" style="fill:#176757"/><rect x="209.6" y="43.4" width="74.9" height="5.3" style="fill:#d0d0d0"/><rect x="209.6" y="51.1" width="40.2" height="5.3" style="fill:#d0d0d0"/><rect x="209.6" y="69.1" width="74.9" height="5.3" style="fill:#d0d0d0"/><rect x="209.6" y="76.9" width="40.2" height="5.3" style="fill:#d0d0d0"/><rect x="209.6" y="94.9" width="74.9" height="5.3" style="fill:#d0d0d0"/><rect x="209.6" y="102.6" width="40.2" height="5.3" style="fill:#d0d0d0"/><rect x="209.6" y="120.6" width="74.9" height="5.3" style="fill:#d0d0d0"/><rect x="209.6" y="128.3" width="40.2" height="5.3" style="fill:#d0d0d0"/><rect x="209.6" y="146.4" width="74.9" height="5.3" style="fill:#d0d0d0"/><rect x="209.6" y="154.1" width="40.2" height="5.3" style="fill:#d0d0d0"/><rect x="209.6" y="172.1" width="74.9" height="5.3" style="fill:#d0d0d0"/><rect x="209.6" y="179.8" width="40.2" height="5.3" style="fill:#d0d0d0"/><rect x="37.5" y="100.2" width="82.1" height="5.3" style="fill:#d0d0d0"/><rect x="37.5" y="107.9" width="44" height="5.3" style="fill:#d0d0d0"/><rect x="37.5" y="125.9" width="82.1" height="5.3" style="fill:#d0d0d0"/><rect x="37.5" y="133.6" width="44" height="5.3" style="fill:#d0d0d0"/><rect x="37.5" y="151.6" width="82.1" height="5.3" style="fill:#d0d0d0"/><rect x="37.5" y="159.4" width="44" height="5.3" style="fill:#d0d0d0"/><rect x="37.5" y="178.7" width="82.1" height="5.3" style="fill:#d0d0d0"/><rect x="37.5" y="186.4" width="44" height="5.3" style="fill:#d0d0d0"/><rect x="205.5" y="19.8" width="38.4" height="8.4" style="fill:#757575"/><rect x="37.5" y="14.3" width="45.2" height="11.1" style="fill:#757575"/><rect x="5.5" y="32.4" width="9.7" height="9.7" style="fill:#1b4470"/><rect x="5.5" y="49" width="9.7" height="9.7" style="fill:#1b4470"/><rect x="5.5" y="66" width="9.7" height="9.7" style="fill:#1b4470"/><path d="M10.3,20.9h0a7.6,7.6,0,0,1-7.6-7.6h0a7.6,7.6,0,0,1,7.6-7.6h0a7.6,7.6,0,0,1,7.6,7.6h0A7.6,7.6,0,0,1,10.3,20.9Z" style="fill:#f98baa"/><path d="M105.2,84.5H39.6a8,8,0,0,1-8-8V39.7a8,8,0,0,1,8-8h65.6a8,8,0,0,1,8,8V76.5A8,8,0,0,1,105.2,84.5Z" style="fill:#fff"/></g></svg>