<?xml version="1.0" encoding="iso-8859-1"?>
<!-- Generator: Adobe Illustrator 22.1.0, SVG Export Plug-In . SVG Version: 6.00 Build 0)  -->
<svg version="1.1" id="Capa_1" xmlns="http://www.w3.org/2000/svg" xmlns:xlink="http://www.w3.org/1999/xlink" x="0px" y="0px"
	 viewBox="-49 141 512 512" style="enable-background:new -49 141 512 512;" xml:space="preserve">
<path style="fill:#FEBB8E;" d="M201.735,314.988h-56.552c-5.208,0-9.43-4.222-9.43-9.431c0-5.208,4.222-9.43,9.43-9.43h62.764
	c2.153,0.002,5.448,0.919,7.324,1.974l43.947,30.738c1.876,1.055,5.172,1.918,7.324,1.918h5.228v44.335h-13.683l-22.113-15.809
	L201.735,314.988z"/>
<g>
	<path style="fill:#FBD5AB;" d="M271.274,375.091H250.81l0,0c-6.457,0-15.475-3.736-20.041-8.301l-35.703-35.703
		c-3.683-3.683-3.683-9.654,0-13.337c3.683-3.683,9.654-3.683,13.337,0l30.01,29.853"/>
	<line style="fill:none;" x1="248.781" y1="357.916" x2="248.781" y2="357.916"/>
</g>
<rect x="268.205" y="330.804" style="fill:#006D87;" width="211.529" height="46.101"/>
<path style="fill:#FF455E;" d="M179.671,352.818c-1.155-5.343-3.994-9.787-7.996-12.514c-3.806-2.594-8.3-3.38-12.998-2.273
	c-4.715,1.111-6.764,4.052-11.325,8.75c-4.561-4.698-6.61-7.639-11.325-8.75c-4.698-1.107-9.193-0.321-12.998,2.273
	c-4.001,2.727-6.841,7.172-7.996,12.514c-1.187,5.491-0.412,11.372,2.182,16.559c5.139,10.279,29.946,24.73,30.137,24.73
	c0.191,0,24.998-14.452,30.137-24.73C180.084,364.191,180.858,358.309,179.671,352.818z"/>
<circle style="fill:#FCB653;" cx="272.277" cy="425.294" r="32.861"/>
<path style="fill:#FF9B5F;" d="M272.279,438.994c-7.554,0-13.7-6.145-13.7-13.699s6.146-13.7,13.7-13.7s13.699,6.145,13.699,13.7
	C285.979,432.849,279.833,438.994,272.279,438.994z"/>
<path style="fill:#956958;" d="M274.246,420.738c-0.791-0.326-1.435-0.617-1.965-0.881c-2.141-1.068-2.336-1.679-2.336-2.412
	c0-1.095,0.865-1.788,2.336-1.907c0.15-0.011,0.306-0.018,0.468-0.018c1.285,0,2.443,0.23,3.543,0.704
	c0.802,0.347,1.688,0.349,2.497,0.007c0.805-0.342,1.444-1.006,1.755-1.826l0.129-0.34c0.611-1.612-0.145-3.404-1.717-4.082
	c-1.055-0.456-2.208-0.774-3.436-0.95v-1.201c0-1.771-1.439-3.212-3.21-3.212c-1.77,0-3.212,1.44-3.212,3.212v1.603
	c-4.097,1.238-6.628,4.482-6.628,8.534c0,5.3,4.256,7.683,8.396,9.308c0.545,0.221,1.012,0.433,1.415,0.641
	c2.182,1.128,2.392,2.063,2.392,2.866c0,1.435-1.142,2.134-2.392,2.364c-0.326,0.061-0.659,0.088-0.981,0.088
	c-1.41,0-2.906-0.344-4.216-0.968c-0.807-0.385-1.748-0.409-2.58-0.067c-0.845,0.349-1.506,1.044-1.815,1.904l-0.128,0.353
	c-0.548,1.534,0.129,3.23,1.574,3.95c1.341,0.668,2.98,1.149,4.656,1.374v1.361c0,1.768,1.439,3.21,3.254,3.21
	c0.078,0,0.157-0.002,0.235-0.009c1.661-0.121,2.975-1.511,2.975-3.201v-1.739c4.225-1.274,6.934-4.745,6.934-8.928
	C282.19,424.717,277.941,422.245,274.246,420.738L274.246,420.738z M274.246,420.738"/>
<path style="fill:#FEBB8E;" d="M210.265,477.012h56.552c5.208,0,9.43,4.222,9.43,9.431c0,5.208-4.222,9.43-9.43,9.43h-62.764
	c-2.153-0.002-5.448-0.919-7.324-1.974l-43.947-30.738c-1.876-1.055-5.172-1.918-7.324-1.918h-5.228v-44.335h13.683l22.113,15.809
	L210.265,477.012z"/>
<g>
	<path style="fill:#FBD5AB;" d="M140.726,416.909h20.464l0,0c6.457,0,15.475,3.736,20.041,8.301l35.703,35.703
		c3.683,3.683,3.683,9.654,0,13.337c-3.683,3.683-9.654,3.683-13.337,0l-30.01-29.853"/>
	<line style="fill:none;" x1="163.219" y1="434.084" x2="163.219" y2="434.084"/>
</g>
<rect x="-67.734" y="415.095" style="fill:#006D87;" width="211.529" height="46.101"/>
</svg>
