<?xml version="1.0" encoding="utf-8"?>
<!-- Generator: Adobe Illustrator 22.1.0, SVG Export Plug-In . SVG Version: 6.00 Build 0)  -->
<svg version="1.2" baseProfile="tiny" id="图层_1"
	 xmlns="http://www.w3.org/2000/svg" xmlns:xlink="http://www.w3.org/1999/xlink" x="0px" y="0px" viewBox="0 0 512 200"
	 xml:space="preserve">
<path fill="#FEBB8E" d="M250.7,19h-56.6c-5.2,0-9.4-4.2-9.4-9.4c0-5.2,4.2-9.4,9.4-9.4h62.8c2.2,0,5.4,0.9,7.3,2l43.9,30.7
	c1.9,1.1,5.2,1.9,7.3,1.9h5.2v44.3h-13.7L285,63.3L250.7,19z"/>
<g>
	<path fill="#FBD5AB" d="M320.3,79.1h-20.5l0,0c-6.5,0-15.5-3.7-20-8.3l-35.7-35.7c-3.7-3.7-3.7-9.7,0-13.3s9.7-3.7,13.3,0l30,29.9"
		/>
	<line fill="none" x1="297.8" y1="61.9" x2="297.8" y2="61.9"/>
</g>
<rect x="317.2" y="34.8" fill="#006D87" width="194.9" height="46.1"/>
<path fill="#FF455E" d="M228.7,56.8c-1.2-5.3-4-9.8-8-12.5c-3.8-2.6-8.3-3.4-13-2.3c-4.7,1.1-6.8,4.1-11.3,8.8
	c-4.6-4.7-6.6-7.6-11.3-8.8c-4.7-1.1-9.2-0.3-13,2.3c-4,2.7-6.8,7.2-8,12.5c-1.2,5.5-0.4,11.4,2.2,16.6
	c5.1,10.3,29.9,24.7,30.1,24.7s25-14.5,30.1-24.7C229.1,68.2,229.9,62.3,228.7,56.8z"/>
<circle fill="#FCB653" cx="321.3" cy="129.3" r="32.9"/>
<path fill="#FF9B5F" d="M321.3,143c-7.6,0-13.7-6.1-13.7-13.7s6.1-13.7,13.7-13.7s13.7,6.1,13.7,13.7C335,136.8,328.8,143,321.3,143
	z"/>
<path fill="#956958" d="M323.2,124.7c-0.8-0.3-1.4-0.6-2-0.9c-2.1-1.1-2.3-1.7-2.3-2.4c0-1.1,0.9-1.8,2.3-1.9c0.1,0,0.3,0,0.5,0
	c1.3,0,2.4,0.2,3.5,0.7c0.8,0.3,1.7,0.3,2.5,0c0.8-0.3,1.4-1,1.8-1.8l0.1-0.3c0.6-1.6-0.1-3.4-1.7-4.1c-1.1-0.5-2.2-0.8-3.4-1v-1.2
	c0-1.8-1.4-3.2-3.2-3.2c-1.8,0-3.2,1.4-3.2,3.2v1.6c-4.1,1.2-6.6,4.5-6.6,8.5c0,5.3,4.3,7.7,8.4,9.3c0.5,0.2,1,0.4,1.4,0.6
	c2.2,1.1,2.4,2.1,2.4,2.9c0,1.4-1.1,2.1-2.4,2.4c-0.3,0.1-0.7,0.1-1,0.1c-1.4,0-2.9-0.3-4.2-1c-0.8-0.4-1.7-0.4-2.6-0.1
	c-0.8,0.3-1.5,1-1.8,1.9l-0.1,0.4c-0.5,1.5,0.1,3.2,1.6,4c1.3,0.7,3,1.1,4.7,1.4v1.4c0,1.8,1.4,3.2,3.3,3.2c0.1,0,0.2,0,0.2,0
	c1.7-0.1,3-1.5,3-3.2v-1.7c4.2-1.3,6.9-4.7,6.9-8.9C331.2,128.7,326.9,126.2,323.2,124.7L323.2,124.7z"/>
<path fill="#FEBB8E" d="M259.3,181h56.6c5.2,0,9.4,4.2,9.4,9.4c0,5.2-4.2,9.4-9.4,9.4h-62.8c-2.2,0-5.4-0.9-7.3-2l-43.9-30.7
	c-1.9-1.1-5.2-1.9-7.3-1.9h-5.2v-44.3h13.7l22.1,15.8L259.3,181z"/>
<g>
	<path fill="#FBD5AB" d="M189.7,120.9h20.5l0,0c6.5,0,15.5,3.7,20,8.3l35.7,35.7c3.7,3.7,3.7,9.7,0,13.3c-3.7,3.7-9.7,3.7-13.3,0
		l-30-29.9"/>
	<line fill="none" x1="212.2" y1="138.1" x2="212.2" y2="138.1"/>
</g>
<rect x="-0.1" y="119.1" fill="#006D87" width="192.9" height="46.1"/>
</svg>
